<?xml version="1.0" encoding="UTF-8"?>
<svg xmlns="http://www.w3.org/2000/svg" viewBox="0 0 336 280">
  <defs>
    <style>
      .cls-1, .cls-2, .cls-3 {
        fill: none;
      }

      .cls-4 {
        fill: #a7a8aa;
      }

      .cls-5 {
        fill: #4c150a;
      }

      .cls-6 {
        fill: #300e06;
      }

      .cls-2 {
        stroke: #300e06;
        stroke-width: 2px;
      }

      .cls-2, .cls-3 {
        stroke-miterlimit: 10;
      }

      .cls-3 {
        stroke: #000;
      }

      .cls-7 {
        fill: #f8fbff;
      }
    </style>
  </defs>
  <g id="Layer_1" data-name="Layer 1">
    <g id="Layer_6" data-name="Layer 6">
      <path class="cls-5" d="M152.12,61.24c.22.34.03,3.25-.1,3.68-.11.37-.4.67-.7.9-1.27.99-2.97,1.32-4.58,1.41-.03,0-.06,0-.1,0-.3.01-.59.02-.88.02-1.14,0-2.28-.11-3.42-.22-.24-.02-.41.12-.48.29-.31.12-.4.55-.13.78,1.13.96,2.26,1.92,3.39,2.88.21.29.49.52.81.69.43.37.87.74,1.3,1.11,1.6,1.36,3.2,2.97,5.39,3.2,1.09.12,2.19-.03,3.26-.23,1.13-.21,2.24-.5,3.33-.84,2.17-.69,4.26-1.59,6.35-2.51,2.06-.9,4.45-1.95,5.01-4.37.12-.53-.62-.7-.85-.29-.03-.01-.07-.03-.11-.03-.09-.12-.22-.19-.39-.16-.28.05-.57.1-.85.14-4.11-.09-8.27-.87-11.92-2.8-.07-.04-.14-.08-.22-.12-.27-.28-.59-.46-.93-.55-.69-.43-1.35-.9-1.97-1.42-.08-.06-.16-.09-.25-.1-.18-.36-.43-.69-.76-.95M153.44,64.46c0-.09.01-.18,0-.27.07.06.14.11.2.17-.07.03-.14.07-.22.1h0Z"/>
      <path class="cls-5" d="M156.57,108.33c-.36-1.65-3.03-2.12-4.35-2.66-1.72-.7-3.49-1.44-4.61-2.99-.36-.5-.92-.51-1.33-.26-.15-.57-.39-1.1-.77-1.56-1.08-1.3-3.01-2.05-4.43-2.88-1.82-1.07-3.63-2.13-5.45-3.2-.56-.33-1.05-.05-1.28.4-.61.05-1.15.78-.94,1.43.02.07.04.13.06.2-.02,0-.03,0-.05,0-.07,0-.16.06-.19.13-.09.27-.12.54-.13.81-.11,0-.21.08-.23.19-.02.13.07.23.19.27.03,0,.06.02.09.03,0,.06.02.12.03.17.02.1.14.15.24.15.08,0,.16-.03.23-.06.11.15.28.24.46.28,1.01,3.13,2.06,6.27,3.46,9.24.67,1.41,1.61,2.28,3.26,2.18.99-.06,1.9-.39,2.91-.32.71.05,1.52.39,2.22.08.24-.11.43-.26.57-.44.47.3,1.06.32,1.55.05,1.69.22,3.39.44,5.08.66,1.33.17,3.89.24,3.41-1.9h0ZM139.19,103.79c-.06-.23-.12-.46-.18-.69.12.24.17.46.18.69Z"/>
      <path class="cls-5" d="M166.29,101.51l-.74-.11c-.07,0-.13.01-.19.05-.13-.1-.28-.17-.43-.2-1.32-.24-2.53-.7-3.69-1.38-1.07-.63-2.06-1.26-3.29-1.53-1.3-.28-1.65,1.74-.37,2.04,1.04,1.31,2.44,2.13,3.95,2.82,1.5.68,3.14,1.2,4.16-.48.16-.26.14-.56.02-.82l.5.07c.12.02.25-.06.27-.19.02-.12-.06-.25-.19-.27h0Z"/>
      <path class="cls-5" d="M219.92,107.36c-.99-.99-1.97-1.99-2.96-2.98-.38-.39-1.33-1.07-.75-1.62.47-.45,1.38-.32,1.96-.27.89.07,1.49-.84,1.06-1.55,0-.13,0-.26-.05-.4-.51-1.67-1.54-3.12-2.93-4.18-.03-.02-.06-.03-.08-.05-.27-.47-.57-.92-.88-1.36-.17-.62-.59-1.13-1.14-1.46-.08-.09-.15-.18-.23-.27-.08-.19-.21-.32-.37-.41-.01-.01-.02-.03-.03-.04-.07-.07-.14-.08-.21-.05-.08-.02-.16-.03-.24-.03-.22-.39-.66-.63-1.19-.37-.45.22-.88.46-1.29.73-.41.04-.86.19-1.34.48-1.69,1.01-3.75,2.13-4.39,4-.08.01-.15.03-.23.07-4.53,2.08-9.37,3.16-14.35,3.2-.33,0-.73.28-.84.6-.14.38-.28.79-.44,1.2-.03-.07-.07-.12-.16-.15-1.7-.5-3.57-.29-5.1.59-1.61.91-2.91,2.73-4.93,2.66-.29,0-.25.45.04.46,1.92.07,3.25-1.49,4.72-2.48,1.52-1.02,3.43-1.29,5.19-.78.04.01.08,0,.12,0-.82,2.04-2.05,4.07-4.46,4.07-1.15,0-1.24,1.98-.08,2.05,5.97.37,11.93.79,17.9,1.09,5.73.29,11.43-.43,17.13-.93.96-.09,1.16-1.22.56-1.83h0Z"/>
      <path class="cls-5" d="M162.48,81c-4.25-.75-8.18,1.54-12.21,2.44-1.14.25-2.31.4-3.47.33,1.63-2.35,4.27-4.88,3.19-7.99-.1-.28-.53-.12-.43.16.49,1.41.03,2.93-.69,4.18-.75,1.3-1.8,2.4-2.62,3.65-.13.2.07.42.24.38.03.03.07.06.13.06,4.29.29,8.11-2.07,12.25-2.74,1.18-.19,2.37-.23,3.54-.02.29.05.37-.4.08-.45h0Z"/>
      <path class="cls-5" d="M217.21,90.21c-3.69-.83-6.79-3.15-9.56-5.64-2.79-2.51-5.36-5.28-8.46-7.41-1.71-1.17-3.57-2.12-5.58-2.65-.29-.08-.36.38-.08.45,3.66.96,6.7,3.35,9.45,5.85,2.77,2.53,5.36,5.29,8.51,7.35,1.73,1.13,3.62,2.03,5.65,2.49.29.06.37-.39.08-.45h0Z"/>
      <g>
        <path class="cls-5" d="M197.43,91.3c-.25-.19-.58-.18-.85-.03-.25.14-.42.43-.36.72.07.32.34.59.67.63.17.02.34-.01.48-.11.11-.08.2-.2.25-.32.12-.3.07-.68-.2-.89ZM197.21,91.97s0,0,0,.01h0s-.02.04-.03.06c0,0,0,.01,0,.02-.01.02-.03.03-.04.05,0,0-.01,0-.02.01,0,0-.02.01-.02.02-.02,0-.03.01-.05.02-.01,0-.03,0-.04,0h-.02s-.05,0-.07-.01c-.01,0-.02,0-.03-.01s-.03-.01-.04-.02c0,0,0,0,0,0-.02-.01-.04-.03-.05-.04,0,0-.02-.02-.03-.03h0s-.03-.04-.04-.06c0,0,0,0,0,0,0,0,0-.02-.01-.02,0-.01,0-.03-.01-.04h0s0,0,0,0c0-.01,0-.03,0-.02,0-.01,0-.03,0-.04,0,0,0-.02,0-.03,0,0,0-.02,0-.03,0-.02.02-.03.03-.05,0,0,.01-.01.02-.02,0,0,.01-.02.02-.03,0,0,0,0,0,0,0,0,0,0,0,0,.01,0,.02-.02.03-.03.01,0,.02-.02.03-.02,0,0,0,0,.01,0h0s.04-.02.05-.02c.01,0,.02,0,.03-.01.02,0,.05,0,.07,0h.03s.05,0,.07.01c.01,0,.02,0,.03.01,0,0,.01,0,.02,0,0,0,0,0,0,0,0,0,.02.01.03.02,0,0,0,0,.01.01,0,0,.01.02.02.03,0,0,0,.01,0,.01,0,.02.02.04.02.06,0,0,0,.01,0,.02,0,.02,0,.04,0,.06v.02s0,.05-.01.07h0Z"/>
        <path class="cls-5" d="M196.67,91.93h0s0-.02,0-.02c0,0,0,.01,0,.02h0Z"/>
      </g>
    </g>
    <g id="Layer_8" data-name="Layer 8">
      <path class="cls-1" d="M178.41,32.42c-2.85-.12-3.67-.17-5.24-.21-.58-.01-2.15-.05-2.88-.03-.77.02-7.08.15-10.53,4.78-.62.83-2.65,3.55-1.98,7.11.59,3.16,2.96,4.95,3.62,5.42-.26,1.06-.49,2.75.21,4.45.52,1.26,1.68,2.82,7.13,5.09,4.49,1.87,6.74,2.8,9.34,2.9,7.37.28,15.95-4.81,17.84-12.24.96-3.79-.12-7-.39-7.74-1.59-4.39-5.28-7.05-8.12-8.15-2.25-.88-4.96-1.16-5.57-1.22-.3-.03-.08,0-3.44-.15h0Z"/>
    </g>
    <g id="Layer_7" data-name="Layer 7">
      <path class="cls-6" d="M130.71,100.39c-.16-.98-.58-2.07-1.51-2.55-.51-.26-1.09-.25-1.65-.21-.29.02-.57.03-.85-.04-.28-.07-.56-.19-.83-.29-1.1-.42-2.21-.89-3.41-.88-1.27.01-2.55.32-3.79.6-.33-.51-.77-.96-1.3-1.28-.99-.61-2.13-.5-3.24-.4-.3.03-.43.29-.4.52-.22.11-.28.39-.19.6-.12.09-.2.23-.18.4.02.23.26.46.5.41,1.41-.29,3.2.35,4.02,1.55.94,1.38-.16,3.19-.71,4.5-.38.89-.69,1.83-.59,2.81,0,.05.02.1.04.14-.03.12,0,.24.07.35.13.18.46.28.64.1.66-.62.9-1.57,1.15-2.41.12-.39.23-.79.39-1.17.21-.49.42-.98.53-1.5.2-.98.13-2.05-.09-3.03.67-.11,1.29-.38,1.91-.65.7-.3,1.42-.58,2.19-.47.07,0,.13,0,.19-.01.43.11.86.26,1.28.42.51.19,1.01.4,1.53.55.56.16,1.11.04,1.67.05.09,0,.17.01.25.02.02.06.05.12.09.17.06.08.06.13.08.28.02.18.04.37.06.55.04.38.06.76.07,1.14.01.69-.06,1.39-.32,2.03-.12.29-.01.63.28.76.27.13.65,0,.76-.28.03-.07.05-.14.08-.22-.05.18-.09.36-.13.55-.12.58.79.74.91.16.22-1.1.66-2.16.47-3.3h0ZM129.72,101.89c.06-.43.08-.88.07-1.32,0-.02,0-.04,0-.06.07.47.02.92-.07,1.38h0Z"/>
      <g>
        <path class="cls-6" d="M158.08,95.35s.04-.02,0,0h0Z"/>
        <path class="cls-6" d="M167.52,98.27c-.83-1.5-2.63-2.22-4.18-2.71-.96-.31-1.94-.54-2.93-.75-.85-.19-1.71-.34-2.54-.61-2.81-.92-5.05-2.94-7.41-4.64-1.18-.84-2.41-1.64-3.75-2.19-.37-.15-.75-.28-1.14-.39.27-.17.44-.45.54-.79.05-.18.07-.36.11-.54.02-.09.03-.13.06-.2.02-.04.03-.08.06-.12-.03.05.05-.06.01-.02.2-.19.22-.43.11-.61.19-.1.27-.37.2-.57-.1-.25-.35-.33-.59-.26-2.79.72-5.43,1.91-7.55,3.91-1.12,1.06-2.04,2.29-2.85,3.6-.93,1.49-1.74,3.05-2.47,4.64-.52,1.14-.99,2.3-1.43,3.47h0c-.34-.06-.58.17-.66.47-.16.54-.42,1.06-.65,1.58-.23.54-.45,1.08-.73,1.59-.49.89-1.15,1.7-1.92,2.38-.23.2-.32.53-.13.8.17.23.57.34.8.13.9-.79,1.66-1.7,2.25-2.74.27-.48.49-.99.7-1.49.19.02.42-.07.48-.26.26-.81.53-1.62.83-2.42.05-.01.1-.04.15-.08.03-.02.05-.04.08-.05.02,0,.06-.03.06-.03.01,0,.04-.01.06-.02.02,0,.05,0,.07,0h.02s.07.01.11.02h0s.01,0,.02,0c.05.02.1.04.14.07,0,0,.01,0,.02.01,0,0,.01,0,.02.02.04.03.07.05.11.08.07.06.14.12.21.19.1.09.25.29.36.44.57.78.98,1.67,1.32,2.57.14.36.26.73.36,1.1,0,.02,0,.05.01.07.03.13.05.27.08.4.07.32.14.64.23.95.32,1.16.78,2.33,1.56,3.27.38.46.83.85,1.35,1.14.64.35,1.38.49,2.09.58,1.68.21,3.38.08,5.07.08.89,0,1.77.09,2.66.12.85.03,1.7.03,2.54.14.82.1,1.61.34,2.44.36.69.01,1.37-.15,1.99-.47.73-.39,1.37-.97,1.94-1.56.53-.56.98-1.22,1.25-1.96.29-.77.37-1.51.2-2.32-.14-.68-.37-1.34-.67-1.97.01,0,.03,0,.04.01.42.12.83.2,1.22.39.82.4,1.54.98,2.38,1.34.77.32,1.61.42,2.44.24,2.76-.6,4.17-3.93,2.82-6.38h0ZM145.23,85.67s.04-.01.06-.02c-.01.07-.03.14-.04.21-.02.07-.04.17-.05.19-.03.07-.04.1-.07.13.05-.16.09-.34.11-.51h0ZM146.38,109.42c-1.68-.01-3.36.14-5.03-.07-.67-.09-1.34-.2-1.93-.55-.46-.27-.84-.66-1.15-1.09-.67-.92-1.05-2.03-1.32-3.12-.2-.82-.36-1.6-.68-2.39-.4-1-.88-2.04-1.58-2.87-.4-.47-.95-.89-1.54-.91.82-2.04,1.78-4.02,2.89-5.9.77-1.31,1.62-2.57,2.68-3.67.34-.35.7-.68,1.08-.99.14.05.28.06.42,0,.17-.06.33-.11.5-.15.09-.02.19-.04.29-.05.04,0,.08,0,.13,0,1.45-.25,2.92-.19,4.33.23,1.27.38,2.45,1.04,3.55,1.78,2.33,1.56,4.42,3.5,6.96,4.74.41.2.83.37,1.25.51-.3.43-.43,1.05-.47,1.53-.08.87-.03,1.76.09,2.64-.02-.01-.04-.02-.06-.03-2.34-1.03-5.19-1.55-7.68-.78-1.24.38-2.34,1.15-2.98,2.3-.67,1.21-.66,2.54-.58,3.88.05.89.09,1.79.28,2.66.17.79.57,1.51.66,2.31-.03,0-.06,0-.09,0h0ZM158.28,106.49c-.45,1.26-1.46,2.33-2.58,3.04-.57.36-1.21.53-1.88.5-.78-.03-1.53-.27-2.3-.36-.85-.1-1.72-.1-2.57-.14-.52-.02-1.03-.06-1.54-.09-.04-.71-.33-1.35-.55-2.02-.23-.7-.3-1.45-.35-2.18-.09-1.23-.26-2.53.18-3.71.88-2.36,3.63-2.88,5.87-2.67,1.18.12,2.35.4,3.46.84.32.3.48.7.65,1.09.18.41.39.8.7,1.12-.04.19.01.39.14.53,0,.02.01.04.02.06.63,1.18,1.24,2.63.76,3.96h0ZM164.33,103.57c-.52.29-.1.28-.7.25-.87-.05-1.64-.55-2.37-1-.27-.17-.54-.34-.83-.49,0-.21-.11-.43-.32-.51-.36-.13-.71-.31-1.04-.51,0,0-.02-.01-.03-.02-.04-.03-.08-.05-.12-.08-.08-.05-.16-.11-.24-.16-.16-.11-.32-.23-.48-.34-.04-.03-.07-.05-.11-.07-.04-.1-.07-.2-.1-.3,0-.03-.04-.17-.04-.17-.02-.09-.04-.17-.06-.26-.09-.47-.16-.94-.21-1.42-.05-.51-.08-1.03-.07-1.54,0-.17.03-.44.06-.65.01-.1.03-.19.05-.29.01-.05.03-.1.04-.16,0-.02.01-.04.02-.06h0s0,0,0,0c.03-.09.07-.18.12-.27,0,0,0,0,0-.02,0-.01.02-.03.03-.04.02-.03.04-.05.07-.08.01-.01.03-.03.05-.03,0,0,.01,0,.02,0h0s.03-.01.04-.02c.04,0,.08,0,.13,0,.06,0,.12-.02.17-.05.71.19,1.43.34,2.15.5,1.78.4,2.67.98,4.18,2.06,1.96,1.4,1.66,4.56-.42,5.73h0Z"/>
      </g>
      <path class="cls-6" d="M193.02,62.19c-1.71,2.3-4.5,3.39-7.27,3.46-1.56.04-3.12-.24-4.62-.69-1.46-.44-2.89-1.23-4.45-1.19-1.5.04-2.64,1.06-3.83,1.85-1.26.84-2.72,1.16-4.2,1.27-2.7.2-5.47-.17-8.05-1.04-2.94-1-5.65-2.62-7.93-4.78-.53-.5-1.24.38-.71.89,4.22,4.01,9.95,6.24,15.67,6.14,1.54-.03,3.13-.2,4.56-.82.69-.29,1.3-.71,1.91-1.14.58-.41,1.15-.84,1.82-1.07,1.43-.49,2.93.35,4.27.8,1.6.53,3.25.88,4.93.93,3.28.1,6.7-1.13,8.74-3.87.44-.58-.43-1.32-.86-.73h0Z"/>
      <path class="cls-6" d="M194.44,39.47c-1.02-1.56-2.31-2.91-3.64-4.21-.03-.08-.09-.15-.15-.21-1.64-1.59-3.83-2.51-6.05-2.93-1.28-.24-2.6-.3-3.9-.28-1.31.02-2.6.18-3.91.29-.32.03-.65.03-.96-.06-.3-.09-.57-.24-.86-.34-.65-.23-1.32-.22-1.99-.16-.1-.08-.23-.13-.4-.12-3.84.35-7.93.79-11.1,3.2-1.43,1.08-2.57,2.54-3.24,4.21-.74,1.83-.98,3.91-.74,5.87.07.54.18,1.08.38,1.59s.5.96.82,1.39c.32.43.63.87.9,1.34.26.46.49.94.71,1.41-.19,1.98.43,4.04,1.73,5.55.82.95,1.86,1.63,2.96,2.21,1.12.59,2.28,1.13,3.43,1.66,2.34,1.07,4.77,2.03,7.32,2.48,2.61.46,5.23.28,7.77-.44,2.88-.81,5.55-2.25,8.07-3.83.18-.11.25-.33.23-.54.87-.83,1.71-1.69,2.39-2.69,1.04-1.53,1.69-3.34,2.1-5.14.82-3.52.11-7.25-1.86-10.26h0ZM195.31,48.85c-.15.84-.38,1.65-.66,2.45-.29.83-.62,1.66-1.07,2.42-.91,1.53-2.27,2.76-3.57,3.95,0,0,0,0-.01.01-.43.25-.86.49-1.3.74-.05.03-.09.07-.12.11-3.56,1.94-7.47,3.32-11.58,2.84-2.42-.28-4.73-1.08-6.96-2.04-1.13-.49-2.24-1.02-3.35-1.56-1.06-.52-2.13-1.03-3.04-1.78-1.79-1.5-2.58-3.97-2.05-6.24.11-.45-.3-.7-.66-.64-.25-.5-.53-1-.85-1.46-.51-.74-1.07-1.39-1.3-2.28-.23-.86-.26-1.81-.2-2.69.05-.91.2-1.83.47-2.71.5-1.58,1.45-3.02,2.72-4.09,1.31-1.1,2.88-1.82,4.5-2.29,2-.58,4.09-.78,6.16-.97.1.09.24.14.41.12.56-.06,1.15-.14,1.7.05.58.2,1.08.47,1.7.5.63.03,1.27-.08,1.9-.14.64-.06,1.27-.11,1.91-.14,2.32-.11,4.7.07,6.86.97,1.01.42,1.94.98,2.75,1.71.03.07.08.13.14.18,1.18,1.14,2.32,2.32,3.29,3.65.97,1.34,1.7,2.83,2.08,4.44.38,1.59.43,3.27.14,4.89h0Z"/>
      <path class="cls-6" d="M187.11,83.1c-2.06,1.01-4.38,1.45-6.66,1.28-.89-.07-1.77-.22-2.62-.47-.01-.69-.04-1.38-.09-2.07.07,0,.15-.04.18-.13.08-.19.14-.38.21-.57,1.39.12,2.78,0,4.14-.61.27-.12.11-.55-.16-.43-1.21.55-2.52.67-3.82.58,1.2-3.59,1.34-7.49.41-11.16-.07-.29-.5-.12-.43.16.91,3.6.74,7.44-.46,10.96-.58-.06-1.16-.16-1.72-.27-2.03-.41-4.02-1.02-6.1-1.04-.3,0-.25.46.04.46,2.37.02,4.78.89,7.17,1.24h0c.09.92.14,1.82.17,2.74-.09-.03-.18-.06-.27-.09-1.14-.41-2.19-1.01-3.31-1.45-1.23-.47-2.57-.71-3.85-.28-.28.1-.12.52.16.43,2.42-.83,4.71.98,6.89,1.74.12.04.25.09.37.12.03,2.45-.19,4.9-.66,7.31-.66,3.45-1.81,6.79-3.41,9.92-.91,1.78-1.97,3.48-3.16,5.08-.18.24.18.53.35.29,2.14-2.87,3.85-6.05,5.07-9.42,1.22-3.35,1.97-6.87,2.2-10.43.06-.87.08-1.74.08-2.62,1.88.52,3.87.63,5.79.31,1.27-.21,2.5-.6,3.65-1.16.26-.13.1-.56-.16-.43h0Z"/>
      <path class="cls-6" d="M223.27,103.87c-.9-1.15-2.25-1.83-3.6-2.33.42-1.38,1.74-2.42,3.18-2.52.1,0,.16-.07.19-.14.07-.06.11-.14.08-.25-.5-1.72-1.7-3.15-3.17-4.15-1.64-1.12-3.59-1.7-5.53-2.05-4.28-.76-8.73-.77-13.02-.2-1.08.14-2.15.33-3.21.55.27-.28.36-.68.31-1.07-.12-.84-.57-1.73-1.35-2.12-.38-.19-.86-.21-1.28-.08.25-2.04.26-4.1.03-6.14-.38-3.4-1.41-6.72-3.03-9.73-.92-1.7-2.02-3.29-3.3-4.74-.19-.22-.57.05-.37.27,2.24,2.53,3.93,5.51,5.01,8.72,1.08,3.19,1.55,6.6,1.34,9.96-.04.64-.1,1.29-.19,1.93-.09.08-.18.16-.25.26-.12.07-.2.18-.24.32-.03.11-.05.22-.08.34-.3.96-.59,1.91-.89,2.87-.04.14.03.31.14.41-.02.15.11.33.3.27,4.05-1.25,8.28-1.91,12.52-1.95,1.37-.01,2.75.04,4.12.16-2.45.77-4.58,2.43-5.91,4.64-.88,1.47-1.35,3.15-.97,4.84.2.89.54,1.75.6,2.66.06.9-.19,1.78-.26,2.68-.06.79.03,1.55.45,2.23.36.6.94,1,1.64,1.01.29,0,.25-.45-.04-.46-.62-.02-1.09-.51-1.34-1.04-.3-.63-.3-1.3-.22-1.98.09-.78.27-1.55.24-2.33-.02-.81-.28-1.58-.49-2.36-.23-.84-.33-1.66-.19-2.51.13-.77.42-1.5.79-2.18.66-1.22,1.6-2.29,2.7-3.13,1.26-.97,2.74-1.64,4.3-1.93,0,0,.01,0,.02,0,.32.04.64.08.96.12,1.96.28,3.93.71,5.67,1.68,1.66.92,3.07,2.37,3.67,4.19-1.55.18-2.91,1.32-3.38,2.8-.02,0-.04-.02-.06-.02-.28-.1-.47.32-.19.42,1.38.49,2.83,1.09,3.8,2.23.89,1.04,1.3,2.6.59,3.85-.15.26.27.45.42.19.75-1.33.38-3.02-.53-4.18h0ZM196.77,91.68c-.07.01-.14.02-.21.03h-.09s-.07,0-.1-.02c0,0,0,0-.01,0,0,0,0,0,0,0,.07-.06.15-.12.23-.16,0,0,.01,0,.02,0l.17.17h0Z"/>
    </g>
    <g id="Layer_9" data-name="Layer 9">
      <path class="cls-3" d="M182.66,37.26c.97-.75,2.74-.28,4.65.28,3.75,1.09,6.92,4.36,7.47,8.05.04.26.5,3.62-1.03,4.48-.3.17-.86.35-4.23-.93-2.3-.88-3.45-1.31-4.07-1.8-2.77-2.16-3.2-5.53-3.26-6.02-.2-1.81-.43-3.41.46-4.06h0Z"/>
      <path class="cls-3" d="M174.17,38.26c.14.8-.98,1.55-1.28,3.72-.18,1.25-.64,4.45-1.91,5.42-.39.3-.67.46-.96.56-1.73.58-2.87.38-4.55.43-2.92.09-3.63,1.4-4.42.82-1.32-.96-.07-5.07,1.33-7.67.91-1.7,1.88-3.62,4.07-4.53,3.38-1.41,7.41-.52,7.73,1.26h0Z"/>
    </g>
    <g id="Layer_10" data-name="Layer 10">
      <path d="M166.85,40.41c.33-.13.46,0,1.78.15,1.79.21,1.94.04,2.28.26,1.04.69.97,3.32-.15,5.16-.89,1.46-2.81,3.04-4.1,2.48-1.48-.64-1.21-3.71-1.11-4.87.07-.85.24-2.76,1.3-3.18h0Z"/>
      <path d="M179.53,41.92c1.32-.09,2.96.76,3.09,2.11.13,1.29-1.2,2.34-2.32,2.63-1.46.39-3.37-.29-3.69-1.57-.34-1.37,1.23-3.05,2.91-3.17h0Z"/>
      <path d="M185.76,41.92c.71-.72,2.47-.54,3.27.39,1.34,1.55-.43,4.71-1.53,4.72-1.23.01-2.94-3.89-1.74-5.11Z"/>
    </g>
    <g id="Layer_11" data-name="Layer 11">
      <path class="cls-4" d="M181.38,43.1c-.27-.26-.63-.42-.99-.55-.12-.04-.25,0-.31.11,0,0,0,0,0,.01-.11.01-.2.09-.24.19-.04.09-.06.19-.09.29-.03.1-.06.21-.09.31-.06.2-.13.4-.09.61.09.41.57.56.94.53.18-.01.37-.06.54-.13.15-.06.32-.13.44-.24.17-.15.26-.35.22-.58-.05-.22-.18-.41-.34-.56h0Z"/>
      <g>
        <path class="cls-4" d="M188.07,42.5c-.24-.19-.57-.24-.85-.13-.08.03-.13.11-.14.19-.02.03-.03.07-.02.11.02.13.12.22.25.21h.04s.07,0,.11.02c0,0,.01,0,.02,0,.02,0,.04.02.06.03.02,0,.04.02.06.03,0,0,.01,0,.02.01.02.01.03.03.05.04,0,0,.02.01.03.02.03.03.05.06.07.09,0,0,.01.02.02.03t0-.01h0s.02.04.03.06c.06.11.13.24.26.28.07.02.14.03.2,0,.06-.03.11-.09.12-.16.04-.3-.07-.61-.31-.8h0Z"/>
        <path class="cls-4" d="M187.77,43.14s-.02-.03,0,0h0Z"/>
      </g>
      <path class="cls-7" d="M180.66,44.11c-.16-.18-.32-.36-.47-.55.03-.14-.06-.3-.24-.28-.1,0-.16.07-.19.15h-.01c-.1.04-.16.15-.14.25-.04.05-.07.12-.06.19,0,.11.09.2.19.23.02.08.09.14.18.15.04.04.09.06.15.06.04.07.11.12.21.11.02,0,.03,0,.04-.01,0,0,0,0,0,0,.05.03.11.06.17.05.05,0,.1-.03.13-.06.08-.07.11-.21.03-.3h0Z"/>
      <path class="cls-7" d="M187.95,43.15c-.06-.06-.12-.12-.17-.18-.08-.09-.16-.17-.24-.26h0s-.05-.08-.09-.1c-.03-.03-.06-.07-.09-.1-.04-.04-.12-.06-.17-.05-.05,0-.1.03-.13.06-.03.03-.06.08-.07.13-.06.08-.06.2,0,.28,0,.03,0,.05.02.07-.07.14,0,.35.2.34.06.13.15.25.28.32.18.11.46.04.54-.17.05-.12.02-.25-.06-.35h0Z"/>
      <path class="cls-7" d="M169.92,42.23c-.1-.08-.24-.07-.32.03-.44.52-.5,1.27-.17,1.85.04.08.14.1.22.09,0,.06.02.11.02.17.03.21.27.26.41.12.61-.61.52-1.75-.16-2.26h0Z"/>
    </g>
  </g>
  <g id="Layer_2" data-name="Layer 2">
    <g id="Layer_5" data-name="Layer 5">
      <path class="cls-2" d="M132.44,100.57c4.79-1.41,1.9,4.1,5.83,8.22,4.06,4.25,11.1,1.64,17.61,2.33,1.35.14,1.12-.6,2.37-1.02,5.08-1.72,9.03-.17,13.28.4,4.83.65,11.46-1.23,12.43-1.02,5.93,1.3,11.63,1.78,20.93,1.96.55-.18,1.38-.41,2.42-.5,2.28-.2,3.71.76,4.92.67,4.18-.31,10.83-1.82,11.91-2.82,1.07-1,5.29.33,5.26-.86-.22-7.39-3.44-14.06-3.44-14.06-5.16-5.24-19.73-22.69-25.03-27.05-2.31-1.91-6.19-.76-7.2-2.97-1.36-2.99,3.23-5.73,4.35-11.99,1.28-7.2-3.05-13.44-4.12-14.98-4.49-6.47-10.86-8.54-13.9-9.53-2.48-.81-11.45-3.72-20.53.71-2.04,1-6.34,3.09-8.99,7.78-2.91,5.15-2.2,10.54-1.24,17.9.36,2.73.94,4.15,1.32,4.95.94,1.97,2.03,3.47,2.03,3.47,1.11,1.54,1.66,1.84,1.67,2.66.02,1.62-2.07,2.79-2.26,2.9-1.56.85-3.17.68-3.61.63-.53-.06-9.89-.63-12.96.58-10.06,3.95-17.82,24.01-20.79,28.49-.54.81-1.12,1.52-1.12,1.52-1.1,1.34-1.72,1.73-2.31,2.34-.65.66-1.35,5.52-.96,6.16.85,1.4,3.12.99,3.48.94,1.94-.29,3-1.73,3.19-2,.45.64,1.17,1.55,2.21,2.47,1.04.92,1.52,1.58,2.27,1.61,2.56.11,6.45-1.79,7.58-4.82.23-.61.26-1.15.29-1.44.26-.03.8-.12,1.37-.41,2.89-1.48.97-2.97,1.75-3.2h0Z"/>
    </g>
  </g>
  <g id="Layer_3" data-name="Layer 3">
    <path class="cls-3" d="M132.49,106.17c-1.72,1.21-3.69,2.7-5.79,4.48-1.07.91-2.73,2.37-4.65,4.27-2.87,2.85-5.56,5.52-8.24,9.58-2.15,3.25-3.34,5.97-4.41,8.41-1.02,2.31-2.16,4.94-3.03,8.61-.58,2.44-.81,4.34-.98,5.86-.16,1.37-.5,4.78-.33,9.24.08,1.96.26,4.39.69,7.17"/>
    <path class="cls-3" d="M215.66,113.24c1.48,1.45,3.33,3.39,5.27,5.83,3.82,4.81,5.96,8.95,6.51,10.04,1.04,2.06,2.86,5.72,4.11,10.89.9,3.7,1.2,6.91,1.29,9.29"/>
    <path class="cls-3" d="M110.78,177.86c1.13,1.87,2.77,4.4,4.95,7.23,2.39,3.11,5.71,7.37,11.04,11.61,5.74,4.57,10.97,6.87,14.47,8.38,5.46,2.35,9.99,3.5,12.18,4,7.52,1.71,13.43,1.73,14.98,1.72,2.51-.02,9.26-.22,17.57-2.67,8.08-2.38,13.63-5.71,16.75-7.62,8.09-4.93,13.19-10.09,14.66-11.61,2.53-2.63,5.65-5.91,8.57-11.04,3.11-5.47,4.59-10.54,5.33-14.08"/>
    <path class="cls-3" d="M104.09,143.4c-.97.21-2.34.5-3.97.85-.9.19-6.64,1.43-12.07,2.63-4.39.98-10.05,2.23-17.25,3.96-7.32,1.76-12.76,3.16-16.99,4.32-7,1.92-9.59,2.84-14.09,4.3-.61.2-5.34,1.38-10.28,4.7-1.82,1.22-2.98,2.26-3.01,3.57-.05,1.98,2.43,3.65,3.76,4.24,3.5,1.56,10.44,2.59,12.96,2.81q9.55.85,21.54,1.44c6.04.3,10.65.09,19.85,0,8.04-.08,13.61-.13,21.23-.39,3.36-.11,9.53-.35,19.11-.94,8.83-.54,23.93-1.47,43.53-3.53,9.62-1.01,30.47-3.36,57.05-7.86,14.44-2.44,8.13-1.72,47.44-9.69,7.56-1.53,14.93-3.94,22.24-6.41,5.56-1.88,11.8-5.06,15.05-7.64.85-.68.6-1.9-.32-2.76-3.24-3.02-10.75-4.29-19.87-5.45-4.95-.63-10.87-1.07-21.24-2.15-9.57-.99-17.06-1.01-23.65-1.27-6.91-.27-12.7-.43-16.88-.52"/>
    <path class="cls-3" d="M232.84,138.92c10.16,1.4,12.57,3.15,12.7,4.56.5,5.23-29.44,12.04-32.04,12.62-4.87,1.09-9.29,1.87-30.13,4.44-18.16,2.24-27.24,3.36-37.18,4.22-9.22.8-23.26,1.82-40.83.25-14.06-1.26-15.31-2.83-15.38-3.61-.23-2.3,8.81-5.04,14.44-6.56"/>
  </g>
</svg>